{
    "programs": [
        {
            "program_id": 1,
            "program_num": 1,
            "nb_streams": 2,
            "pmt_pid": 256,
            "pcr_pid": 4113,
            "start_pts": 1520000,
            "start_time": "1.520000",
            "end_pts": 10584489,
            "end_time": "10.584489",
            "tags": {
                "service_name": "",
                "service_provider": ""
            },
            "streams": [
                {
                    "index": 0,
                    "codec_name": "h264",
                    "codec_long_name": "H.264 / AVC / MPEG-4 AVC / MPEG-4 part 10",
                    "profile": "High",
                    "codec_type": "video",
                    "codec_time_base": "1/50",
                    "codec_tag_string": "[27][0][0][0]",
                    "codec_tag": "0x001b",
                    "width": 1920,
                    "height": 1080,
                    "coded_width": 1920,
                    "coded_height": 1080,
                    "has_b_frames": 1,
                    "sample_aspect_ratio": "1:1",
                    "display_aspect_ratio": "16:9",
                    "pix_fmt": "yuv420p",
                    "level": 40,
                    "chroma_location": "left",
                    "field_order": "progressive",
                    "refs": 1,
                    "is_avc": "false",
                    "nal_length_size": "0",
                    "id": "0x1011",
                    "r_frame_rate": "25/1",
                    "avg_frame_rate": "25/1",
                    "time_base": "1/90000",
                    "start_pts": 136800,
                    "start_time": "1.520000",
                    "duration_ts": 813600,
                    "duration": "9.040000",
                    "bits_per_raw_sample": "8",
                    "disposition": {
                        "default": 0,
                        "dub": 0,
                        "original": 0,
                        "comment": 0,
                        "lyrics": 0,
                        "karaoke": 0,
                        "forced": 0,
                        "hearing_impaired": 0,
                        "visual_impaired": 0,
                        "clean_effects": 0,
                        "attached_pic": 0,
                        "timed_thumbnails": 0
                    }
                },
                {
                    "index": 1,
                    "codec_name": "mp2",
                    "codec_long_name": "MP2 (MPEG audio layer 2)",
                    "codec_type": "audio",
                    "codec_time_base": "1/44100",
                    "codec_tag_string": "[3][0][0][0]",
                    "codec_tag": "0x0003",
                    "sample_fmt": "s16p",
                    "sample_rate": "44100",
                    "channels": 2,
                    "channel_layout": "stereo",
                    "bits_per_sample": 0,
                    "id": "0x1100",
                    "r_frame_rate": "0/0",
                    "avg_frame_rate": "0/0",
                    "time_base": "1/90000",
                    "start_pts": 136800,
                    "start_time": "1.520000",
                    "duration_ts": 815804,
                    "duration": "9.064489",
                    "bit_rate": "192000",
                    "disposition": {
                        "default": 0,
                        "dub": 0,
                        "original": 0,
                        "comment": 0,
                        "lyrics": 0,
                        "karaoke": 0,
                        "forced": 0,
                        "hearing_impaired": 0,
                        "visual_impaired": 0,
                        "clean_effects": 0,
                        "attached_pic": 0,
                        "timed_thumbnails": 0
                    }
                }
            ]
        }
    ],
    "streams": [
        {
            "index": 0,
            "codec_name": "h264",
            "codec_long_name": "H.264 / AVC / MPEG-4 AVC / MPEG-4 part 10",
            "profile": "High",
            "codec_type": "video",
            "codec_time_base": "1/50",
            "codec_tag_string": "[27][0][0][0]",
            "codec_tag": "0x001b",
            "width": 1920,
            "height": 1080,
            "coded_width": 1920,
            "coded_height": 1080,
            "has_b_frames": 1,
            "sample_aspect_ratio": "1:1",
            "display_aspect_ratio": "16:9",
            "pix_fmt": "yuv420p",
            "level": 40,
            "chroma_location": "left",
            "field_order": "progressive",
            "refs": 1,
            "is_avc": "false",
            "nal_length_size": "0",
            "id": "0x1011",
            "r_frame_rate": "25/1",
            "avg_frame_rate": "25/1",
            "time_base": "1/90000",
            "start_pts": 136800,
            "start_time": "1.520000",
            "duration_ts": 813600,
            "duration": "9.040000",
            "bits_per_raw_sample": "8",
            "disposition": {
                "default": 0,
                "dub": 0,
                "original": 0,
                "comment": 0,
                "lyrics": 0,
                "karaoke": 0,
                "forced": 0,
                "hearing_impaired": 0,
                "visual_impaired": 0,
                "clean_effects": 0,
                "attached_pic": 0,
                "timed_thumbnails": 0
            }
        },
        {
            "index": 1,
            "codec_name": "mp2",
            "codec_long_name": "MP2 (MPEG audio layer 2)",
            "codec_type": "audio",
            "codec_time_base": "1/44100",
            "codec_tag_string": "[3][0][0][0]",
            "codec_tag": "0x0003",
            "sample_fmt": "s16p",
            "sample_rate": "44100",
            "channels": 2,
            "channel_layout": "stereo",
            "bits_per_sample": 0,
            "id": "0x1100",
            "r_frame_rate": "0/0",
            "avg_frame_rate": "0/0",
            "time_base": "1/90000",
            "start_pts": 136800,
            "start_time": "1.520000",
            "duration_ts": 815804,
            "duration": "9.064489",
            "bit_rate": "192000",
            "disposition": {
                "default": 0,
                "dub": 0,
                "original": 0,
                "comment": 0,
                "lyrics": 0,
                "karaoke": 0,
                "forced": 0,
                "hearing_impaired": 0,
                "visual_impaired": 0,
                "clean_effects": 0,
                "attached_pic": 0,
                "timed_thumbnails": 0
            }
        }
    ],
    "format": {
        "filename": "/home/codetalks/Workspace/libeasyice/examples/hello.ts",
        "nb_streams": 2,
        "nb_programs": 1,
        "format_name": "mpegts",
        "format_long_name": "MPEG-TS (MPEG-2 Transport Stream)",
        "start_time": "1.520000",
        "duration": "9.064489",
        "size": "7938300",
        "bit_rate": "7006065",
        "probe_score": 50
    }
}
